<svg xmlns="http://www.w3.org/2000/svg" viewBox="0 0 1200 800" role="img" aria-labelledby="title desc">
  <title id="title">Verkstadstekniker arbetar på en husbil i verkstaden</title>
  <desc id="desc">Illustration av en verkstadsmiljö med en tekniker som arbetar på en husbil.</desc>
  <defs>
    <linearGradient id="floor" x1="0" y1="0" x2="0" y2="1">
      <stop offset="0%" stop-color="#7d8b76" />
      <stop offset="100%" stop-color="#547156" />
    </linearGradient>
    <linearGradient id="body" x1="0" y1="0" x2="1" y2="0">
      <stop offset="0%" stop-color="#f5f2e8" />
      <stop offset="100%" stop-color="#d9d4c5" />
    </linearGradient>
    <linearGradient id="cab" x1="0" y1="0" x2="1" y2="0">
      <stop offset="0%" stop-color="#3a5842" />
      <stop offset="100%" stop-color="#264230" />
    </linearGradient>
  </defs>
  <rect width="1200" height="800" fill="#e5e2d7" />
  <rect y="520" width="1200" height="280" fill="url(#floor)" />
  <rect x="150" y="260" width="830" height="260" rx="40" ry="40" fill="url(#body)" stroke="#9a8e7f" stroke-width="6" />
  <rect x="150" y="330" width="830" height="120" fill="#f4f1e8" />
  <rect x="150" y="260" width="180" height="270" fill="url(#cab)" rx="36" ry="36" />
  <rect x="190" y="310" width="90" height="60" rx="10" ry="10" fill="#dfe3d7" />
  <rect x="620" y="310" width="140" height="100" rx="22" ry="22" fill="#d2c8b4" />
  <circle cx="630" cy="580" r="60" fill="#2c4b33" />
  <circle cx="630" cy="580" r="45" fill="#aab09b" />
  <circle cx="990" cy="580" r="60" fill="#2c4b33" />
  <circle cx="990" cy="580" r="45" fill="#aab09b" />
  <rect x="320" y="430" width="360" height="90" rx="18" ry="18" fill="#3a5842" opacity="0.16" />
  <rect x="270" y="295" width="40" height="140" rx="20" ry="20" fill="#5b735d" />
  <rect x="330" y="360" width="28" height="140" rx="14" ry="14" fill="#5b735d" />
  <path d="M470 370c24-18 90-42 220 10" fill="none" stroke="#2b382d" stroke-width="18" stroke-linecap="round" />
  <ellipse cx="280" cy="650" rx="160" ry="28" fill="#6f7f6f" opacity="0.6" />
  <g transform="translate(430 420)">
    <rect x="0" y="0" width="72" height="160" rx="22" ry="22" fill="#404b3f" />
    <rect x="24" y="14" width="24" height="24" rx="12" ry="12" fill="#9fb39b" />
    <path d="M36 72c0 32-14 56 0 86" fill="none" stroke="#9fb39b" stroke-width="14" stroke-linecap="round" />
    <path d="M14 120c26 12 44 0 58-18" fill="none" stroke="#9fb39b" stroke-width="14" stroke-linecap="round" />
  </g>
  <rect x="460" y="560" width="72" height="20" rx="10" ry="10" fill="#4c5d46" transform="rotate(-20 496 570)" />
  <rect x="530" y="520" width="18" height="64" rx="9" ry="9" fill="#4c5d46" transform="rotate(25 539 552)" />
  <path d="M450 455c16-22 50-34 92-24" fill="none" stroke="#4c5d46" stroke-width="14" stroke-linecap="round" />
  <path d="M502 524c12-24 36-38 72-34" fill="none" stroke="#4c5d46" stroke-width="14" stroke-linecap="round" />
  <rect x="650" y="450" width="32" height="88" rx="16" ry="16" fill="#55664f" transform="rotate(-10 666 494)" />
  <rect x="585" y="510" width="94" height="20" rx="10" ry="10" fill="#3a4c39" />
  <ellipse cx="645" cy="300" rx="42" ry="46" fill="#f0d9c0" />
  <ellipse cx="645" cy="310" rx="24" ry="26" fill="#3e3c3a" />
  <path d="M628 325c14 8 24 18 34 32" fill="none" stroke="#3e3c3a" stroke-width="10" stroke-linecap="round" />
  <path d="M640 278c6-14 10-24 22-30" fill="none" stroke="#3e3c3a" stroke-width="10" stroke-linecap="round" />
  <path d="M642 326c-22 10-34 34-38 56" fill="none" stroke="#3e3c3a" stroke-width="12" stroke-linecap="round" />
  <rect x="560" y="370" width="165" height="128" rx="40" ry="40" fill="#475b48" />
  <rect x="560" y="430" width="98" height="110" rx="24" ry="24" fill="#7a8a75" />
  <path d="M620 450c38 8 44 28 54 42" fill="none" stroke="#536650" stroke-width="16" stroke-linecap="round" />
</svg>
